<?xml version="1.0" standalone="no"?>
<!DOCTYPE svg PUBLIC "-//W3C//DTD SVG 20010904//EN"
 "http://www.w3.org/TR/2001/REC-SVG-20010904/DTD/svg10.dtd">
<svg version="1.0" xmlns="http://www.w3.org/2000/svg"
 width="1273.000000pt" height="1280.000000pt" viewBox="0 0 1273.000000 1280.000000"
 preserveAspectRatio="xMidYMid meet">
<metadata>
Created by potrace 1.15, written by Peter Selinger 2001-2017
</metadata>
<g transform="translate(0.000000,1280.000000) scale(0.100000,-0.100000)"
fill="#000000" stroke="none">
<path d="M7205 12765 c-60 -18 -389 -115 -730 -215 -341 -100 -847 -248 -1125
-330 -1766 -519 -2964 -870 -3380 -992 -190 -56 -349 -105 -355 -110 -6 -5 2
-19 20 -37 42 -40 4977 -3976 5023 -4005 20 -13 51 -27 69 -31 54 -11 13 -24
1193 385 272 95 610 212 750 260 140 49 424 147 630 218 206 72 661 229 1010
350 349 121 858 297 1130 392 272 94 618 214 769 266 150 52 286 101 302 110
35 18 37 34 7 61 -67 60 -4993 3653 -5047 3680 -81 42 -122 42 -266 -2z m-206
-469 c312 -56 559 -174 725 -346 241 -249 141 -515 -230 -610 -406 -104 -979
35 -1266 308 -301 286 -133 601 353 661 97 13 312 5 418 -13z m-3219 -951
c183 -24 331 -66 479 -136 332 -155 506 -401 418 -592 -49 -108 -170 -192
-343 -238 -101 -27 -363 -37 -498 -19 -204 27 -426 102 -587 196 -119 70 -248
198 -291 289 -28 59 -33 81 -33 140 1 147 101 254 298 320 158 52 359 67 557
40z m4785 -246 c393 -47 764 -250 882 -483 38 -74 43 -174 13 -243 -98 -230
-532 -332 -981 -233 -382 85 -691 292 -760 510 -52 165 44 317 251 398 167 65
347 80 595 51z m-3104 -1035 c289 -50 539 -165 699 -324 114 -113 145 -174
145 -285 0 -96 -18 -138 -85 -206 -222 -223 -832 -229 -1265 -12 -129 64 -190
107 -277 194 -101 99 -143 183 -142 279 1 127 70 219 215 288 148 69 288 94
495 86 67 -2 164 -11 215 -20z m4794 -205 c189 -28 417 -106 569 -196 110 -65
246 -200 283 -279 38 -83 43 -181 13 -253 -97 -225 -531 -328 -975 -231 -610
134 -958 547 -681 808 148 140 457 199 791 151z m-3230 -1054 c303 -25 654
-179 824 -360 79 -85 115 -160 119 -251 5 -95 -21 -156 -95 -224 -320 -292
-1188 -180 -1548 201 -221 235 -152 480 168 589 152 51 299 64 532 45z"/>
<path d="M1280 10788 c-5 -13 -296 -1457 -646 -3211 -516 -2583 -635 -3192
-626 -3211 5 -13 775 -682 1709 -1487 934 -805 2035 -1754 2446 -2109 412
-355 761 -651 775 -659 22 -12 27 -11 38 3 6 10 15 34 19 54 3 20 322 1482
707 3247 386 1766 703 3226 705 3245 3 25 -2 45 -19 70 -13 19 -172 154 -354
300 -1050 840 -4716 3765 -4729 3772 -11 7 -18 3 -25 -14z m487 -1163 c115
-35 262 -150 364 -284 97 -130 193 -346 234 -532 26 -115 31 -364 10 -474 -22
-119 -62 -219 -118 -298 -52 -73 -93 -107 -175 -145 -48 -23 -70 -27 -142 -26
-101 1 -157 19 -255 79 -81 50 -202 171 -265 264 -90 133 -167 319 -205 491
-9 43 -19 144 -22 235 -6 197 13 311 76 442 106 220 288 311 498 248z m3184
-2595 c94 -29 161 -72 256 -163 366 -351 489 -1049 249 -1410 -79 -118 -179
-178 -311 -185 -141 -7 -273 55 -410 192 -243 244 -381 637 -354 1009 29 410
275 650 570 557z m-1967 -768 c390 -193 645 -849 520 -1337 -41 -160 -142
-298 -262 -357 -59 -29 -76 -33 -152 -33 -55 0 -104 6 -137 18 -228 76 -448
344 -551 667 -52 165 -67 258 -66 430 1 133 5 169 27 251 53 203 152 332 296
390 36 15 66 19 142 16 91 -2 102 -5 183 -45z m-2029 -703 c215 -67 432 -330
541 -654 153 -457 57 -927 -218 -1064 -302 -151 -703 169 -855 684 -38 131
-55 250 -55 390 1 259 63 438 195 563 115 108 229 132 392 81z m3106 -2645
c88 -26 177 -82 267 -168 337 -324 472 -944 288 -1331 -174 -366 -568 -350
-856 36 -187 251 -293 626 -260 927 30 283 153 474 350 545 32 12 159 6 211
-9z"/>
<path d="M12285 8499 c-220 -76 -542 -188 -715 -248 -173 -60 -589 -205 -925
-321 -335 -117 -673 -234 -750 -260 -77 -26 -414 -143 -750 -260 -335 -116
-725 -252 -865 -300 -977 -338 -1341 -465 -1380 -485 -57 -29 -75 -50 -89
-100 -32 -122 -1403 -6418 -1408 -6467 -4 -43 -3 -58 7 -58 7 0 279 99 604
221 686 257 1517 567 2776 1037 639 239 1680 627 2015 753 345 129 413 160
432 199 6 14 46 176 88 360 42 184 101 441 131 570 31 129 77 331 105 447 27
117 72 310 99 428 28 118 73 312 100 430 28 118 73 312 100 430 28 118 73 312
100 430 28 118 73 312 100 430 28 118 73 312 100 430 28 118 73 312 100 430
28 118 73 312 100 430 28 118 73 312 100 430 28 118 72 311 99 428 28 116 75
318 105 447 76 326 73 310 45 309 -13 0 -204 -63 -424 -140z m-342 -934 c73
-36 138 -107 169 -183 20 -50 23 -74 22 -197 0 -126 -3 -148 -28 -225 -103
-311 -348 -607 -634 -767 -91 -51 -239 -100 -325 -108 -200 -18 -361 80 -414
254 -25 79 -22 241 5 343 97 360 415 724 755 864 106 43 164 54 282 51 99 -3
116 -6 168 -32z m-2162 -2627 c289 -134 275 -583 -31 -990 -325 -433 -833
-624 -1070 -402 -93 87 -126 186 -117 353 21 425 435 922 874 1051 102 30 267
24 344 -12z m-2367 -2688 c165 -51 248 -182 248 -390 0 -371 -312 -819 -707
-1018 -132 -66 -213 -87 -340 -87 -104 0 -114 2 -177 33 -113 55 -176 148
-198 290 -46 292 178 724 502 970 249 189 484 260 672 202z"/>
</g>
</svg>
